<?xml version="1.0" standalone="no"?>
<!DOCTYPE svg PUBLIC "-//W3C//DTD SVG 20010904//EN"
 "http://www.w3.org/TR/2001/REC-SVG-20010904/DTD/svg10.dtd">
<svg version="1.0" xmlns="http://www.w3.org/2000/svg"
 width="460.000000pt" height="460.000000pt" viewBox="0 0 460.000000 460.000000"
 preserveAspectRatio="xMidYMid meet">
<metadata>
Created by potrace 1.11, written by Peter Selinger 2001-2013
</metadata>
<g transform="translate(0.000000,460.000000) scale(0.100000,-0.100000)"
fill="#000000" stroke="none">
<path d="M1850 4551 c0 -45 -3 -53 -33 -75 -19 -15 -39 -26 -45 -26 -10 0 -48
-42 -68 -76 -7 -12 -20 -18 -38 -16 -18 1 -29 -4 -33 -16 -3 -9 -14 -26 -25
-38 -15 -17 -16 -23 -6 -31 22 -18 79 -25 190 -23 65 1 148 -5 212 -16 85 -15
110 -16 132 -6 24 12 25 14 11 30 -8 9 -17 31 -19 47 -2 24 -7 29 -24 27 -13
-2 -38 11 -64 33 -23 19 -47 35 -52 35 -6 0 -26 16 -45 35 -25 26 -32 39 -25
48 6 7 15 36 20 65 l9 52 -48 0 -49 0 0 -49z"/>
<path d="M1338 4513 c-9 -10 -18 -46 -21 -84 -3 -36 -10 -77 -16 -90 -5 -13
-13 -90 -17 -171 -4 -109 -10 -150 -20 -159 -18 -15 -41 4 -69 58 -29 57 -135
183 -154 183 -9 0 -50 -36 -92 -79 -112 -115 -115 -153 -17 -183 47 -14 78
-42 78 -72 0 -31 -33 -60 -58 -51 -22 6 -52 -26 -52 -55 0 -9 -16 -47 -35 -85
-27 -52 -35 -79 -33 -110 2 -22 8 -39 14 -38 26 5 222 29 320 39 56 6 62 5 78
-17 20 -30 20 -48 0 -70 -15 -17 -15 -19 1 -35 14 -14 15 -27 9 -78 -4 -34 -7
-103 -6 -155 0 -54 -4 -103 -10 -115 -7 -13 -13 -89 -15 -191 -4 -240 -9 -304
-28 -353 -11 -27 -15 -54 -11 -75 4 -17 6 -141 6 -274 0 -180 -3 -252 -14
-285 -8 -24 -16 -74 -19 -112 -4 -52 -10 -73 -23 -83 -30 -22 -38 1 -36 109 3
131 23 471 28 480 2 3 0 18 -5 31 -11 28 -26 31 -168 43 -83 6 -83 6 -93 -20
-5 -15 -12 -133 -15 -264 -4 -130 -8 -275 -10 -322 -2 -47 -4 -144 -4 -215
l-1 -130 -107 -80 c-58 -44 -125 -93 -149 -110 -24 -16 -51 -46 -61 -65 -10
-19 -30 -53 -44 -75 -42 -65 -77 -138 -85 -181 -4 -21 -21 -68 -39 -104 -77
-154 -124 -307 -132 -427 -6 -91 -9 -100 -86 -315 l-46 -128 2039 0 c1314 0
2040 3 2040 10 0 5 -7 42 -15 82 -20 100 -63 324 -80 424 -8 45 -19 148 -24
228 -5 79 -12 149 -15 154 -3 5 -8 54 -11 108 -6 92 -10 105 -53 192 -26 51
-64 114 -84 140 -21 26 -54 71 -73 99 -20 29 -47 60 -61 70 -27 17 -239 93
-262 93 -7 0 -74 29 -149 65 -75 36 -144 65 -153 65 -9 0 -29 13 -44 29 -16
16 -42 35 -60 42 -17 7 -49 30 -72 51 -37 35 -43 38 -69 28 -25 -9 -32 -7 -55
15 -14 14 -32 25 -39 25 -22 0 7 -29 64 -66 66 -42 74 -52 81 -107 14 -98 -47
-207 -162 -295 -97 -73 -146 -87 -265 -75 -80 9 -108 17 -189 57 -52 25 -91
46 -86 46 5 0 1 9 -9 20 -9 10 -20 18 -24 17 -3 -1 -20 10 -36 26 -16 15 -26
27 -20 27 5 0 0 6 -11 14 -16 13 -17 18 -6 36 12 20 12 21 -10 10 -22 -11 -22
-10 -4 4 22 18 56 21 56 6 0 -5 7 -10 15 -10 8 0 15 -4 15 -9 0 -5 14 -19 30
-31 17 -12 30 -16 30 -10 0 6 -10 14 -22 19 -13 5 -17 10 -10 15 6 4 30 -7 54
-24 l42 -31 15 28 c8 15 14 35 13 43 -1 8 13 26 33 39 19 12 40 36 47 52 7 15
23 33 35 40 31 17 29 34 -11 81 -42 49 -53 84 -31 107 8 10 12 21 8 25 -4 4 3
9 15 13 12 3 22 9 22 14 0 5 8 5 17 2 12 -5 15 -2 10 10 -4 11 -2 14 9 10 10
-3 12 0 8 10 -3 10 2 18 15 22 26 8 50 47 32 53 -12 4 -16 23 -3 21 20 -3 32
2 32 16 0 16 -5 17 -55 19 -16 1 -31 7 -31 14 -1 6 -2 16 -3 21 0 5 -10 7 -22
4 -16 -5 -18 -8 -7 -15 10 -8 10 -9 -2 -5 -8 2 -15 9 -15 15 0 6 -9 18 -20 25
-17 13 -18 17 -5 33 14 16 13 17 -2 11 -10 -3 -18 -2 -18 3 0 6 4 10 9 10 9 0
2 52 -8 60 -3 3 -11 20 -18 37 -10 28 -9 34 5 43 10 5 12 10 7 10 -6 0 -11 20
-11 45 -1 24 2 42 7 40 4 -3 10 -1 13 4 3 5 22 12 41 15 42 8 39 21 -7 30 -30
6 -31 8 -14 18 26 14 146 14 173 -1 12 -6 39 -11 61 -11 26 0 42 -5 46 -15 7
-19 36 -20 36 -1 0 8 -4 26 -10 40 -8 22 -13 24 -44 19 -20 -3 -41 -1 -48 4
-7 6 -22 13 -33 16 -20 7 -20 7 -1 -8 26 -20 19 -23 -32 -13 -32 7 -42 13 -38
24 4 10 -3 14 -22 15 -15 0 -36 3 -47 5 -33 8 -58 11 -95 13 -29 1 -32 3 -17
12 9 5 17 16 17 23 0 7 11 23 25 36 l25 23 23 -21 c13 -12 25 -22 28 -22 2 0
5 18 7 40 1 22 -2 40 -7 40 -5 0 -13 9 -16 20 -4 11 -11 17 -17 14 -7 -4 -8
-2 -4 4 4 6 -1 26 -10 44 -10 18 -18 41 -19 50 -1 10 -10 27 -20 39 -19 20
-19 21 2 62 33 64 36 84 17 95 -15 8 -12 11 15 17 21 4 37 2 47 -6 14 -11 13
-14 -7 -21 -22 -9 -22 -9 -3 -23 11 -7 42 -45 68 -84 26 -39 55 -75 64 -80 11
-7 13 -10 4 -11 -9 0 -4 -11 12 -31 14 -17 26 -37 26 -45 0 -14 11 -18 38 -15
6 1 12 -7 12 -19 0 -11 5 -20 11 -20 7 0 9 10 4 28 -4 15 -8 43 -8 62 -2 34
-1 35 43 41 l45 6 -50 3 c-38 2 -28 5 47 11 132 11 175 36 193 112 9 36 21 34
30 -5 6 -32 7 -32 16 -9 5 13 8 56 5 95 -3 57 -2 65 7 42 l10 -29 12 23 c8 15
10 34 5 51 -5 15 -6 30 -3 33 11 11 -1 278 -13 298 -3 5 -1 15 6 23 7 8 7 15
1 19 -5 4 -17 41 -26 84 -18 87 -27 112 -49 139 -8 10 -24 29 -35 43 -17 20
-20 22 -21 8 0 -10 -4 -18 -10 -18 -5 0 -10 8 -10 18 -1 30 -38 102 -54 102
-8 0 -16 5 -18 11 -2 5 -11 11 -20 13 -10 1 -25 11 -35 22 -10 12 -28 26 -40
33 -13 6 -23 19 -23 29 0 20 -62 72 -85 72 -21 0 -43 22 -37 38 2 8 -2 10 -14
5 -12 -5 -15 -3 -9 6 6 10 3 11 -13 2 -23 -12 -66 -15 -59 -3 5 6 -24 11 -82
12 -14 0 -28 6 -33 12 -6 10 -8 10 -8 1 0 -9 -17 -13 -52 -13 -49 0 -119 -17
-134 -33 -4 -4 -18 -7 -30 -7 -13 0 -26 -4 -29 -10 -3 -5 -1 -10 5 -10 6 0 8
-4 5 -10 -3 -5 -12 -10 -19 -10 -8 0 -30 -15 -50 -33 -39 -36 -68 -44 -64 -18
2 9 -3 15 -11 13 -8 -2 -11 3 -8 11 4 10 -1 13 -19 9 -25 -4 -44 -22 -25 -22
18 0 12 -21 -11 -41 -21 -17 -21 -18 -3 -12 11 3 17 3 14 -1 -4 -4 -21 -9 -39
-11 -36 -5 -37 14 -2 30 28 12 29 25 2 18 -11 -3 -25 -14 -30 -24 -7 -11 -18
-16 -32 -14 -13 3 -28 -4 -39 -16 -10 -12 -23 -18 -30 -13 -7 4 -9 3 -6 -3 6
-10 -55 -90 -80 -106 -10 -6 -10 -13 -3 -27 8 -15 7 -18 -3 -14 -7 2 -25 -7
-40 -22 -31 -31 -81 -113 -74 -121 3 -3 1 -17 -5 -32 -6 -14 -16 -71 -22 -126
-11 -104 -3 -232 24 -397 13 -74 13 -79 -7 -100 -50 -56 -63 -126 -34 -194 11
-27 25 -67 31 -90 17 -68 73 -131 146 -164 55 -26 67 -36 87 -77 33 -65 50
-207 46 -369 l-4 -131 -33 -39 c-75 -87 -91 -103 -97 -94 -3 5 9 25 26 44 34
39 33 40 -23 27 -21 -5 -38 -6 -38 -2 0 3 -22 16 -50 29 -42 20 -51 28 -60 62
-14 50 -48 75 -92 66 -71 -14 -100 -82 -58 -136 17 -22 27 -25 87 -26 60 -1
68 -4 66 -20 -1 -10 2 -25 7 -34 7 -13 -9 -26 -78 -66 -117 -68 -350 -179
-358 -171 -4 4 3 38 15 76 23 73 59 113 115 127 15 4 29 12 31 18 3 11 21 401
30 671 3 83 10 226 16 318 5 92 8 171 6 175 -3 4 -1 36 4 72 16 123 13 203 -8
237 -28 46 -24 164 7 216 l23 38 -23 49 c-22 47 -23 56 -15 192 4 79 9 251 10
383 3 215 2 243 -14 263 -16 22 -18 22 -33 5z m1197 -363 c3 -5 -1 -10 -9 -10
-8 0 -18 5 -21 10 -3 6 1 10 9 10 8 0 18 -4 21 -10z m-337 -37 c-28 -28 -40
-34 -48 -25 -6 6 -7 10 -4 7 4 -2 22 9 41 25 48 42 55 37 11 -7z m82 22 c0 -8
-7 -15 -16 -15 -14 0 -14 3 -4 15 7 8 14 15 16 15 2 0 4 -7 4 -15z m52 -37
c-7 -7 -12 -8 -12 -2 0 14 12 26 19 19 2 -3 -1 -11 -7 -17z m368 12 c0 -5 -2
-10 -4 -10 -3 0 -8 5 -11 10 -3 6 -1 10 4 10 6 0 11 -4 11 -10z m-390 -14 c0
-2 -7 -7 -16 -10 -8 -3 -12 -2 -9 4 6 10 25 14 25 6z m37 -28 c-3 -8 -6 -5 -6
6 -1 11 2 17 5 13 3 -3 4 -12 1 -19z m-318 -39 c-19 -12 -24 -2 -8 17 9 11 14
13 17 4 3 -7 -2 -16 -9 -21z m600 -24 c0 -5 -6 1 -14 15 -8 14 -14 30 -14 35
0 6 6 -1 14 -15 8 -14 14 -29 14 -35z m149 -295 c7 0 9 -7 5 -17 -5 -12 -2
-15 10 -10 8 3 21 -1 27 -9 7 -8 21 -14 31 -14 10 0 21 -5 25 -11 3 -6 15 -8
25 -6 29 8 48 -39 53 -130 3 -59 10 -92 29 -129 13 -27 28 -65 32 -84 3 -19 9
-42 11 -51 4 -15 -3 -15 -68 -3 -40 7 -110 13 -155 13 -74 1 -83 3 -83 20 0
13 10 21 33 26 17 4 26 9 20 12 -7 2 -13 9 -13 15 0 6 7 8 15 4 8 -3 15 -1 15
4 0 5 -12 12 -27 16 -16 3 -33 7 -40 9 -6 2 -25 0 -40 -4 -16 -5 -39 -4 -51 0
-18 7 -28 4 -48 -16 -20 -20 -22 -28 -14 -51 13 -33 8 -39 -18 -25 -12 6 -29
11 -40 11 -10 0 -39 10 -65 23 -25 13 -57 23 -71 22 -14 0 -26 4 -26 10 0 5
-13 17 -29 26 -23 13 -51 16 -147 13 -130 -5 -163 4 -129 31 11 9 13 13 5 9
-8 -5 -5 4 8 20 21 27 21 30 5 42 -17 12 -16 14 7 31 25 18 30 20 63 22 10 0
16 5 12 10 -3 5 -1 12 5 16 5 3 10 11 10 16 0 6 -4 8 -9 4 -5 -3 -12 4 -16 15
-3 11 -10 20 -15 20 -5 0 1 10 13 23 35 36 134 62 220 58 29 -1 47 2 47 9 0 6
4 9 9 6 5 -4 21 -2 35 4 18 6 26 6 26 -1 0 -6 9 -8 20 -4 11 4 20 2 20 -4 0
-6 7 -11 15 -11 8 0 15 4 15 8 0 4 9 8 20 8 11 0 20 -6 20 -12 0 -14 28 -27
41 -18 5 3 17 1 26 -5 14 -7 21 -4 35 17 10 15 18 21 18 15 0 -26 18 -12 24
18 l6 32 19 -22 c10 -11 23 -21 29 -21z m-668 -74 c0 -3 -4 -8 -10 -11 -5 -3
-10 -1 -10 4 0 6 5 11 10 11 6 0 10 -2 10 -4z m-8 -44 c4 -12 -1 -18 -13 -18
-22 0 -24 7 -7 24 15 15 15 15 20 -6z m206 -322 c23 -10 42 -23 42 -27 0 -5
-37 -4 -82 2 -106 13 -115 35 -18 43 8 1 34 -7 58 -18z m241 -66 c-12 -15 -46
-18 -73 -8 -13 5 -12 9 6 24 18 14 28 15 50 8 23 -8 26 -13 17 -24z m429 13
c32 -17 32 -18 32 -95 0 -140 -33 -165 -210 -160 -133 4 -164 16 -197 75 -23
41 -45 144 -23 110 6 -9 17 -14 23 -11 7 4 8 3 4 -1 -4 -5 16 -24 45 -42 29
-19 54 -29 56 -23 2 5 18 10 35 10 28 0 29 1 13 13 -15 11 -10 15 43 31 34 10
72 15 86 12 30 -8 33 4 5 22 -12 7 -18 17 -15 23 10 15 -59 39 -112 39 -36 0
-44 3 -33 11 24 16 209 6 248 -14z m-644 -13 c17 -8 22 -12 11 -8 -11 3 -56
12 -100 20 l-80 13 69 -5 c37 -2 82 -11 100 -20z m511 -22 c-3 -3 -11 0 -18 7
-9 10 -8 11 6 5 10 -3 15 -9 12 -12z m-519 -155 c-1 -48 -3 -51 -36 -63 -44
-16 -210 -18 -210 -3 0 5 4 7 10 4 5 -3 7 0 4 8 -3 8 -14 17 -24 20 -24 6 -38
56 -19 67 14 9 63 3 90 -11 9 -5 21 -3 27 3 9 9 12 9 12 0 0 -7 10 -12 23 -12
16 0 18 3 9 9 -10 6 -9 10 7 14 12 3 21 1 21 -5 0 -5 5 -6 10 -3 6 4 8 10 5
15 -6 10 22 17 51 12 19 -3 21 -10 20 -55z m383 -83 c10 -9 -35 -3 -49 6 -11
8 -7 9 15 4 17 -4 32 -8 34 -10z m-269 -34 c0 -6 -11 -15 -24 -20 -34 -12 -46
-34 -15 -26 21 6 22 6 6 -4 -15 -9 -23 -8 -39 6 -20 19 -20 19 2 36 24 19 70
24 70 8z m-155 -32 c-4 -18 -9 -36 -12 -41 -2 -4 -5 -45 -7 -92 -1 -59 -6 -89
-17 -102 -19 -21 -31 -53 -21 -53 4 0 7 -24 7 -52 -1 -43 -4 -54 -19 -56 -32
-7 -37 12 -19 69 23 74 24 82 10 91 -9 6 -9 8 1 8 7 0 10 5 7 10 -4 7 -12 7
-25 0 -15 -8 -24 -5 -45 14 -14 14 -25 33 -23 43 2 10 -2 17 -7 16 -6 -1 -11
7 -11 18 0 10 3 19 7 19 12 0 3 34 -9 38 -14 4 -16 51 -3 70 4 7 23 16 42 19
19 2 35 6 36 6 1 1 27 3 58 5 l57 3 -7 -33z m-965 -854 c0 -40 -4 -55 -12 -52
-15 5 -22 50 -14 84 11 43 26 25 26 -32z m2040 -1239 c0 -2 -5 -16 -12 -30
-10 -21 -18 -25 -57 -25 -81 0 -121 -48 -101 -120 13 -48 63 -93 94 -84 48 14
56 32 56 119 0 54 5 88 14 101 8 10 17 16 21 12 11 -11 39 -330 32 -359 -14
-57 -39 -73 -116 -77 -43 -3 -71 0 -71 6 0 24 38 53 75 59 54 8 65 19 65 64
l0 38 -27 -15 c-46 -23 -88 -18 -127 17 -97 85 -110 198 -30 273 26 23 36 26
106 26 43 0 78 -2 78 -5z m255 -29 c4 -19 4 -51 1 -73 -3 -21 -5 -50 -6 -65 0
-18 -5 -28 -15 -28 -12 0 -15 13 -15 59 l0 59 -37 5 c-59 7 -83 -13 -83 -72 0
-65 33 -115 78 -119 29 -3 34 1 43 27 14 40 29 39 29 -1 0 -46 -34 -98 -64
-98 -24 0 -68 29 -98 65 -26 31 -41 99 -36 162 4 46 10 61 32 80 40 34 122 27
100 -8 -6 -12 -5 -12 9 0 9 7 17 20 17 27 0 8 9 14 20 14 14 0 21 -9 25 -34z"/>
<path d="M3580 750 c-6 -12 -7 -20 -1 -20 5 0 12 -8 14 -17 3 -10 5 -1 6 20 1
42 -3 46 -19 17z"/>
<path d="M3592 670 c0 -14 2 -19 5 -12 2 6 2 18 0 25 -3 6 -5 1 -5 -13z"/>
<path d="M3003 4333 c6 -136 8 -144 18 -137 5 2 5 12 2 21 -5 12 1 10 25 -7
17 -13 28 -28 25 -36 -3 -8 0 -14 7 -14 7 0 10 -6 7 -13 -3 -8 -2 -19 2 -26
11 -17 41 116 41 180 0 35 -6 59 -17 71 -9 10 -17 28 -19 41 -1 12 -3 25 -3
30 -1 4 -22 7 -47 7 l-46 0 5 -117z"/>
<path d="M0 4220 c0 -108 2 -120 18 -120 31 0 41 14 48 69 6 46 3 60 -21 112
-16 32 -32 59 -37 59 -4 0 -8 -54 -8 -120z"/>
<path d="M4200 4309 c0 -9 -9 -24 -20 -34 -22 -20 -18 -35 10 -35 22 0 35 43
21 68 -9 15 -10 15 -11 1z"/>
<path d="M2091 4120 c-30 -26 -14 -26 19 0 14 11 21 20 15 19 -5 0 -21 -9 -34
-19z"/>
<path d="M1888 4053 c7 -3 16 -2 19 1 4 3 -2 6 -13 5 -11 0 -14 -3 -6 -6z"/>
<path d="M0 3798 c0 -190 2 -217 16 -222 10 -4 22 1 29 11 15 20 28 187 16
211 -28 55 -41 99 -47 150 -3 31 -8 59 -10 61 -2 2 -4 -93 -4 -211z"/>
<path d="M3563 3978 c-8 -9 -11 -58 -9 -140 3 -183 19 -185 31 -4 4 60 10 95
21 107 22 25 71 31 104 14 22 -11 35 -12 59 -4 53 19 34 29 -53 29 -46 0 -97
3 -113 6 -19 4 -33 1 -40 -8z"/>
<path d="M4435 3974 c-17 -13 -18 -16 -5 -24 10 -6 17 -4 23 6 14 24 4 34 -18
18z"/>
<path d="M3830 3972 c0 -15 42 -33 62 -26 19 6 18 8 -11 20 -38 16 -51 17 -51
6z"/>
<path d="M3915 3688 c-2 -7 -6 -58 -9 -113 -3 -55 -8 -112 -12 -127 -4 -17 -2
-28 4 -28 19 0 36 65 36 142 1 65 4 80 24 101 l23 24 -23 7 c-33 8 -38 8 -43
-6z"/>
<path d="M4050 3676 c0 -9 40 -13 46 -5 3 5 -6 9 -20 9 -14 0 -26 -2 -26 -4z"/>
<path d="M4175 3670 c3 -5 14 -10 23 -10 15 0 15 2 2 10 -20 13 -33 13 -25 0z"/>
<path d="M0 3078 c0 -254 2 -459 5 -457 2 3 7 102 9 220 3 118 10 309 16 426
10 188 9 216 -5 243 -8 16 -18 30 -20 30 -3 0 -5 -208 -5 -462z"/>
<path d="M4197 3463 c-4 -3 -7 -22 -6 -42 0 -31 2 -33 9 -15 5 12 13 25 19 29
16 9 14 35 -2 35 -8 0 -17 -3 -20 -7z"/>
<path d="M958 3353 c-9 -10 -19 -29 -23 -43 -4 -13 -23 -46 -41 -73 -27 -39
-31 -52 -24 -72 7 -18 5 -28 -6 -40 -9 -8 -17 -15 -20 -15 -14 0 -45 45 -48
71 -5 43 -11 44 -35 6 -12 -19 -33 -42 -46 -51 -30 -19 -31 -42 -6 -75 l19
-24 11 21 c10 18 21 22 66 22 35 0 57 -5 62 -14 11 -19 34 -24 65 -15 33 9 41
-6 27 -53 -13 -46 -11 -112 4 -127 16 -16 -9 -7 -71 26 -35 19 -47 21 -53 11
-4 -7 -4 -17 0 -23 5 -5 12 -29 15 -52 3 -24 9 -61 12 -83 7 -48 36 -70 60
-46 8 8 15 18 14 21 -1 20 2 24 17 18 11 -4 14 -3 9 5 -12 20 22 25 49 8 26
-17 51 -13 39 6 -4 6 -10 5 -15 -3 -5 -8 -9 -9 -9 -3 0 16 27 37 39 30 5 -4
13 -1 17 5 5 8 2 10 -7 5 -8 -4 -6 -1 4 7 23 19 22 26 -3 20 -11 -3 -20 -10
-20 -16 0 -6 -3 -7 -7 -4 -3 4 -12 -1 -19 -10 -11 -15 -11 -14 -7 10 3 15 12
28 22 29 9 0 21 2 26 3 6 2 15 3 20 4 12 1 45 78 48 112 1 13 -7 55 -18 92
-16 54 -25 69 -43 74 -52 13 -45 61 10 67 75 8 66 48 -28 124 -42 34 -79 62
-84 62 -4 0 -14 -8 -22 -17z m-4 -229 c9 -22 7 -54 -2 -54 -10 0 -62 53 -62
63 0 15 58 7 64 -9z m56 -310 c0 -13 -34 -32 -47 -27 -21 8 -15 25 7 18 11 -4
20 -2 20 4 0 6 5 11 10 11 6 0 10 -3 10 -6z"/>
<path d="M4182 3320 c0 -14 2 -19 5 -12 2 6 2 18 0 25 -3 6 -5 1 -5 -13z"/>
<path d="M4423 3293 c-18 -7 -17 -184 2 -253 8 -30 15 -74 15 -97 0 -46 8 -73
20 -73 10 0 18 67 24 182 3 49 10 88 22 110 31 55 35 58 53 48 15 -8 18 -4 17
26 -1 20 -8 39 -16 44 -18 9 -120 19 -137 13z"/>
<path d="M4105 3160 c-3 -6 -4 -19 0 -29 9 -29 -3 -46 -66 -96 -44 -34 -57
-51 -50 -58 16 -16 231 -20 230 -4 0 7 -20 28 -44 47 -52 42 -57 52 -44 86 15
41 -7 85 -26 54z"/>
<path d="M606 3112 c-10 -16 -12 -189 -3 -198 16 -17 27 23 27 101 0 78 -10
119 -24 97z"/>
<path d="M3827 3073 c-4 -3 -7 -31 -7 -60 0 -30 -4 -62 -9 -71 -12 -23 -23
-214 -37 -622 -10 -324 -22 -594 -27 -616 -3 -11 -11 -40 -18 -63 -16 -55 -6
-64 74 -69 l62 -4 35 43 c19 24 42 50 52 57 22 16 23 44 3 83 -20 37 -54 51
-107 43 -29 -5 -43 -3 -49 7 -9 13 -3 225 7 294 7 42 35 80 59 80 13 0 21 8
23 24 3 21 1 23 -21 17 -43 -10 -51 12 -48 142 1 64 5 153 9 197 4 44 4 96 -1
116 -5 20 -4 116 1 220 5 101 8 185 7 187 -1 1 -5 -1 -8 -5z"/>
<path d="M3182 2917 c-7 -8 -12 -31 -10 -49 l4 -33 12 29 c7 16 12 39 10 49
-3 18 -4 19 -16 4z"/>
<path d="M710 2910 c0 -18 26 -64 48 -83 20 -19 21 -18 27 28 4 25 6 47 4 49
-12 11 -79 16 -79 6z"/>
<path d="M2567 2839 c-22 -13 -13 -29 15 -29 12 0 30 -8 40 -17 25 -23 41 -6
25 27 -14 27 -51 36 -80 19z"/>
<path d="M3146 2740 c-8 -19 -24 -43 -35 -52 -23 -19 -19 -45 10 -66 14 -9 16
-18 10 -35 -5 -12 -11 -20 -15 -17 -13 9 -29 -33 -33 -81 -2 -34 1 -48 12 -53
16 -6 35 22 35 52 0 13 9 22 25 26 28 7 35 40 10 50 -18 6 -20 42 -3 52 8 5 9
0 6 -14 -4 -12 -3 -24 1 -27 16 -9 18 155 2 182 -8 16 -12 13 -25 -17z"/>
<path d="M4450 2620 c0 -16 -9 -69 -21 -117 -12 -50 -23 -139 -26 -208 -2 -66
-12 -142 -20 -168 -11 -34 -13 -65 -8 -105 8 -64 8 -187 0 -213 -8 -24 -29
-30 -64 -16 -25 9 -40 8 -73 -3 -37 -13 -45 -21 -61 -65 -33 -89 -47 -137 -41
-146 3 -5 26 -9 52 -9 44 0 50 3 103 60 40 42 61 59 73 54 24 -9 20 -38 -10
-73 -25 -30 -25 -33 -10 -56 20 -30 27 -31 56 -7 21 17 21 21 11 92 -6 48 -7
109 -1 170 16 166 60 773 60 823 0 9 -4 17 -10 17 -5 0 -10 -13 -10 -30z"/>
<path d="M3555 2601 c-3 -11 -5 -50 -3 -88 1 -37 -1 -79 -5 -93 -9 -30 8 -63
22 -42 14 23 22 164 10 205 -11 42 -15 45 -24 18z"/>
<path d="M3105 2318 c-8 -32 -4 -58 10 -61 14 -3 18 49 6 70 -8 16 -10 15 -16
-9z"/>
<path d="M3499 2306 c-12 -25 -4 -96 9 -96 4 0 13 -13 19 -30 14 -36 25 -38
43 -6 13 25 7 62 -8 52 -5 -3 -15 5 -22 18 -9 18 -9 29 -1 44 16 30 14 42 -9
42 -12 0 -25 -10 -31 -24z"/>
<path d="M4174 2182 c-31 -20 -43 -102 -14 -102 5 0 7 -7 4 -15 -4 -8 -1 -15
6 -15 8 0 10 9 6 25 -4 16 0 40 10 61 17 35 10 60 -12 46z"/>
<path d="M3899 2148 c-8 -38 -7 -48 6 -48 8 0 15 7 15 15 0 8 0 18 1 22 0 7
-20 18 -22 11z"/>
<path d="M4583 2069 c-7 -7 -13 -27 -13 -43 l0 -30 16 22 c19 27 16 70 -3 51z"/>
<path d="M3124 1859 c4 -71 17 -112 30 -98 2 2 5 42 7 89 4 82 3 85 -19 88
-22 3 -22 2 -18 -79z"/>
<path d="M4592 1805 c0 -16 2 -22 5 -12 2 9 2 23 0 30 -3 6 -5 -1 -5 -18z"/>
<path d="M3400 1690 c0 -5 5 -10 10 -10 6 0 10 5 10 10 0 6 -4 10 -10 10 -5 0
-10 -4 -10 -10z"/>
<path d="M4571 1548 c-1 -7 -3 -31 -5 -53 -3 -43 -28 -109 -44 -119 -6 -4 -32
-1 -58 5 -46 12 -48 12 -70 -17 -32 -40 -38 -76 -19 -114 18 -35 35 -31 35 9
0 43 16 51 107 51 l83 0 0 58 c0 32 -5 63 -11 69 -9 9 -9 19 0 41 7 16 9 41 5
55 -6 28 -19 36 -23 15z"/>
<path d="M4080 1539 c0 -5 5 -7 10 -4 6 3 10 8 10 11 0 2 -4 4 -10 4 -5 0 -10
-5 -10 -11z"/>
<path d="M55 1530 c3 -5 10 -10 16 -10 5 0 9 5 9 10 0 6 -7 10 -16 10 -8 0
-12 -4 -9 -10z"/>
<path d="M4083 1502 c-21 -14 -43 -74 -49 -134 -4 -35 -13 -74 -21 -86 -13
-21 -13 -26 0 -40 8 -10 17 -39 20 -67 3 -34 12 -55 27 -67 12 -10 25 -18 29
-18 9 0 41 76 41 98 0 26 33 42 75 35 34 -6 36 -4 27 13 -13 23 -48 54 -62 54
-6 0 -10 5 -10 11 0 6 -7 9 -15 5 -18 -6 -21 19 -3 30 7 5 8 3 3 -6 -6 -9 -4
-11 4 -6 9 6 9 12 -2 24 -20 23 -37 78 -37 118 0 35 -9 47 -27 36z"/>
<path d="M4474 1459 c0 -11 5 -18 10 -16 16 5 18 24 4 30 -9 3 -14 -3 -14 -14z"/>
<path d="M1 1344 c0 -11 3 -14 6 -6 3 7 2 16 -1 19 -3 4 -6 -2 -5 -13z"/>
<path d="M80 1170 c-8 -16 -8 -20 4 -20 9 0 20 9 26 20 8 16 8 20 -4 20 -9 0
-20 -9 -26 -20z"/>
<path d="M21 1166 c-10 -12 -9 -14 6 -11 10 2 21 4 26 4 4 1 7 6 7 11 0 15
-26 12 -39 -4z"/>
<path d="M4036 949 c18 -153 77 -309 116 -309 12 0 10 44 -4 77 -6 15 -12 35
-14 43 -2 8 -17 44 -35 80 -17 36 -34 82 -37 102 -2 21 -11 43 -19 50 -12 10
-13 3 -7 -43z"/>
<path d="M4351 871 c1 -44 -2 -84 -5 -90 -12 -19 5 -109 22 -116 27 -10 31 8
17 80 -7 39 -14 71 -14 73 -1 1 -1 31 -1 67 0 37 -4 65 -10 65 -6 0 -10 -32
-9 -79z"/>
<path d="M4233 715 c0 -22 2 -30 4 -17 2 12 2 30 0 40 -3 9 -5 -1 -4 -23z"/>
<path d="M4240 330 c0 -19 11 -26 23 -14 8 8 -3 34 -14 34 -5 0 -9 -9 -9 -20z"/>
<path d="M4290 261 c0 -12 6 -21 15 -21 8 0 15 4 15 9 0 5 -7 14 -15 21 -13
10 -15 9 -15 -9z"/>
</g>
</svg>
